<svg xmlns="http://www.w3.org/2000/svg" xmlns:xlink="http://www.w3.org/1999/xlink" xmlns:lucid="lucid" width="1403" height="1149.89"><g transform="translate(-199.16666666666663 -305.3880208333335)" lucid:page-tab-id="0_0"><path d="M0 0h2000v1500H0z" fill="#fff"/><path d="M200.67 306.9h1400v1146.88h-1400z" stroke="#242f3e" stroke-width="3" fill="#fff" fill-opacity="0"/><path d="M200.67 306.9h56v56h-56z" fill="#242f3e"/><path d="M218.87 332.76c0 .5.05.9.16 1.34.17.4.28.68.5 1.07.06.1.12.22.12.33 0 .17-.17.34-.34.45l-.88.62c-.17.1-.28.1-.4.1-.16 0-.33-.05-.44-.2-.23-.18-.4-.4-.56-.7-.17-.2-.28-.5-.45-.83-1.06 1.35-2.63 2.08-4.37 2.08-1.17.05-2.13-.34-2.96-1.12-.8-.8-1.13-1.74-1.13-2.86h.02c0-1.23.44-2.24 1.4-3.08 1.06-.84 2.3-1.23 3.63-1.12.56 0 1 0 1.57.1.62.07 1.12.18 1.74.3v-1.07c.1-.9-.17-1.68-.67-2.4-.74-.57-1.58-.8-2.48-.68-.56 0-1.06.04-1.62.16-.56.16-1 .33-1.57.56l-.5.16h-.28c-.17 0-.34-.16-.34-.44v-.73c0-.22.07-.33.18-.5.1-.16.22-.28.4-.33.66-.34 1.17-.5 1.9-.67.78-.23 1.45-.28 2.3-.28 1.45-.12 2.8.28 3.85 1.17.96 1.06 1.4 2.3 1.24 3.7zm-6.05 2.3c.56 0 1.06-.12 1.62-.28.56-.23 1-.5 1.4-.96.28-.28.45-.6.5-.95.12-.45.17-.84.17-1.3v-.66c-.54-.1-.94-.16-1.44-.2h-1.4c-.78-.07-1.57.1-2.2.55-.55.45-.77 1.06-.7 1.73-.07.62.1 1.18.5 1.63.44.34 1 .5 1.56.46zm11.98 1.56c-.22.06-.4 0-.56-.16-.17-.17-.28-.34-.33-.56l-3.47-11.54-.16-.62c0-.22.16-.33.4-.33h1.45c.22 0 .4 0 .6.12.18.22.24.4.3.62l2.45 9.96 2.4-9.96c0-.23.07-.4.3-.56.16-.12.4-.17.55-.17h1.24c.22 0 .4.06.6.18.18.16.23.33.3.56l2.34 9.96 2.52-10.02c.06-.22.17-.4.34-.56.17-.1.4-.17.56-.17h1.4c.17 0 .33.1.4.34v.27s0 .22-.12.4l-3.64 11.47c-.06.22-.1.45-.28.62-.22.1-.4.16-.56.16h-1.3c-.27 0-.44-.05-.6-.16-.17-.17-.28-.4-.28-.62l-2.3-9.58-2.3 9.58c-.05.22-.16.45-.33.62-.16.1-.38.16-.6.16zm19.2.4c-.77 0-1.5-.06-2.28-.23-.68-.18-1.13-.34-1.74-.62-.17-.12-.34-.23-.45-.45-.06-.1-.1-.28-.1-.4v-.78c0-.28.1-.45.32-.45h.28l.4.17c.56.23 1 .4 1.56.5.6.12 1.17.17 1.84.17.73.06 1.46-.05 2.13-.44.5-.34.78-.84.78-1.4 0-.45-.16-.8-.4-1.07-.44-.4-.94-.67-1.5-.78l-2.18-.67c-.95-.28-1.74-.73-2.4-1.52-.46-.67-.74-1.34-.74-2.18 0-.62.1-1.12.45-1.62.28-.5.62-.9 1.06-1.24.45-.33.96-.56 1.57-.72.68-.23 1.24-.28 1.9-.28h1.02l.95.16.84.23.7.3c.16.1.27.2.44.32.05.17.1.34.1.5v.74c0 .28-.1.44-.38.44-.17 0-.34-.05-.56-.16-.96-.45-1.8-.62-2.86-.56-.73-.06-1.34.05-2.02.4-.44.27-.72.77-.67 1.33 0 .4.1.8.45 1.08.5.4 1 .6 1.62.78l2.07.67c.95.28 1.68.73 2.3 1.46.5.6.72 1.28.72 2.06 0 .67-.17 1.18-.4 1.74-.27.56-.6.95-1.1 1.34-.52.4-.97.67-1.58.84-.78.22-1.4.34-2.18.34zm2.75 7.33c-5.6 3.8-11.36 5.6-18.14 5.6-8.5 0-15.78-2.74-22.16-8.45-.45-.45 0-1 .5-.68 7.06 4.04 14.06 5.88 22.23 5.88 6.05-.05 11.26-1.06 16.9-3.47.85-.33 1.53.56.7 1.12zm2.08-2.24c-.62-.83-4.15-.38-5.77-.2-.45 0-.5-.35-.1-.68 2.8-1.96 7.44-1.4 8-.73.6.66-.12 5.25-2.75 7.5-.44.33-.77.1-.6-.3.5-1.56 1.84-4.86 1.23-5.6z" fill="#fff"/><use xlink:href="#a" transform="matrix(1,0,0,1,271.66666666666663,326.8880208333335) translate(0 21.52777777777778)"/><use xlink:href="#b" transform="matrix(1,0,0,1,271.66666666666663,326.8880208333335) translate(56.477864583333336 21.52777777777778)"/><path d="M280.67 386.9h1240v986.88h-1240z" stroke="#8c4fff" stroke-width="3" fill="#fff" fill-opacity="0"/><path d="M280.67 386.9h56v56h-56z" fill="#8c4fff"/><path d="M324.03 416.33l-4.1-1.76v14.68c3.55-.48 4.1-4.16 4.1-4.3v-8.62zm-5.52 12.96v-14.73l-4.23 1.76v8.7c0 .06.63 3.85 4.24 4.26zm.44-16.46c.2-.07.4-.07.55.04l5.5 2.35c.3.1.44.37.44.63v9.16c-.23 2.02-1.88 5.7-6.35 5.7-4.32 0-5.97-3.68-6.24-5.6v-9.26c0-.26.2-.52.43-.63l5.64-2.4zm7.92.92l-7.65-3.38-7.75 3.27v9.97c0 .07-.04 4 2.35 6.48 1.26 1.32 3.06 1.98 5.3 1.98 2.27 0 4.03-.66 5.36-1.98 2.44-2.47 2.4-6.44 2.4-6.48v-9.86zm-1.42 17.3c-1.56 1.6-3.68 2.42-6.35 2.42-2.63 0-4.75-.8-6.32-2.43-2.82-2.87-2.7-7.28-2.7-7.47v-10.4c0-.3.16-.56.43-.63l8.44-3.57c.2-.08.4-.08.55 0l8.33 3.68c.28.1.44.36.44.62v10.34c0 .18.04 4.56-2.83 7.43zm-29.4-10.24h11.2v1.4h-11.2c-3.92 0-6.74-2.83-6.97-7.03v-.52c0-3.53 1.84-5.92 5.33-7 0-.3-.04-.65-.04-.87 0-4.08 2.23-7.65 5.64-9.05 4.63-1.87 9.84-1.25 12.74 1.55 1.06 1.03 1.88 2.17 2.47 3.5.88-.63 1.97-.92 3.3-.85 2.5.1 4.44 2.4 4.83 5.6 2.07.18 3.5 1.24 4.2 3.23l-1.3.48c-.6-1.62-1.7-2.36-3.57-2.36-.35 0-.67-.25-.67-.66-.2-3.24-2-4.82-3.57-4.9-1.33-.07-2.3.3-2.9 1.1-.16.2-.4.3-.67.27-.24-.03-.47-.2-.55-.43-.58-1.55-1.4-2.84-2.54-3.94-2.5-2.43-7.13-2.94-11.25-1.25-2.85 1.18-4.73 4.2-4.73 7.73 0 .37.04.96.08 1.33.04.37-.16.7-.5.77-3.23.8-4.87 2.73-4.87 5.78v.4c.2 3.5 2.4 5.74 5.56 5.74z" stroke="#fff" stroke-opacity="0" fill="#fff"/><use xlink:href="#c" transform="matrix(1,0,0,1,351.66666666666663,406.8880208333335) translate(0 21.52777777777778)"/><use xlink:href="#d" transform="matrix(1,0,0,1,351.66666666666663,406.8880208333335) translate(52.00737847222222 21.52777777777778)"/><path d="M416.23 918.22v-11.28h11.28v11.28h-11.27zm16.68 0v-11.28h11.3v11.28h-11.3zm-19.43 5.4h33.48c1.44 0 2.64-1.2 2.64-2.64v-16.8c0-1.44-1.2-2.64-2.65-2.64h-33.48c-1.44 0-2.64 1.2-2.64 2.64v16.8c0 1.44 1.2 2.64 2.64 2.64zm45 4.08h-6.72c-1.56 0-2.76 1.32-2.76 2.76v4.44h-6.5v-4.44c0-1.44-1.2-2.76-2.75-2.76h-9.48c-1.56 0-2.76 1.32-2.76 2.76v4.44h-18.47v-4.44c0-1.44-1.2-2.76-2.64-2.76h-2.05v-30.24h54.12v30.24zm2.76-35.76H401.6c-1.57 0-2.77 1.2-2.77 2.76v35.76c0 1.56 1.2 2.76 2.76 2.76h2.03v4.44c0 1.44 1.2 2.76 2.76 2.76h23.87c1.44 0 2.64-1.32 2.64-2.76v-4.44h4.1v4.44c0 1.44 1.3 2.76 2.75 2.76h12c1.44 0 2.64-1.32 2.64-2.76v-4.44h6.83c1.56 0 2.76-1.2 2.76-2.76V894.7c0-1.56-1.2-2.76-2.77-2.76zm-66.48-2.04c0-1.44-1.2-2.76-2.76-2.76h-8.53v5.52h5.88v47.04h-5.88v5.4H392c1.55 0 2.75-1.2 2.75-2.64V889.9zm25.92 78.48c-30.12 0-54.6-24.48-54.6-54.6s24.48-54.6 54.6-54.6 54.6 24.48 54.6 54.6-24.48 54.6-54.6 54.6zm0-114.6c-33.12 0-60 26.88-60 60 0 33.12 26.88 60 60 60 33.12 0 60-26.88 60-60 0-33.12-26.88-60-60-60z" stroke="#000" stroke-opacity="0" fill="#8c4fff"/><use xlink:href="#e" transform="matrix(1,0,0,1,240.66666666666663,982.7760416666669) translate(133.91710069444446 21.52777777777778)"/><use xlink:href="#f" transform="matrix(1,0,0,1,240.66666666666663,982.7760416666669) translate(204.56597222222223 21.52777777777778)"/><path d="M416.23 1238.22v-11.28h11.28v11.28h-11.27zm16.68 0v-11.28h11.3v11.28h-11.3zm-19.43 5.4h33.48c1.44 0 2.64-1.2 2.64-2.64v-16.8c0-1.44-1.2-2.64-2.65-2.64h-33.48c-1.44 0-2.64 1.2-2.64 2.64v16.8c0 1.44 1.2 2.64 2.64 2.64zm45 4.08h-6.72c-1.56 0-2.76 1.32-2.76 2.76v4.44h-6.5v-4.44c0-1.44-1.2-2.76-2.75-2.76h-9.48c-1.56 0-2.76 1.32-2.76 2.76v4.44h-18.47v-4.44c0-1.44-1.2-2.76-2.64-2.76h-2.05v-30.24h54.12v30.24zm2.76-35.76H401.6c-1.57 0-2.77 1.2-2.77 2.76v35.76c0 1.56 1.2 2.76 2.76 2.76h2.03v4.44c0 1.44 1.2 2.76 2.76 2.76h23.87c1.44 0 2.64-1.32 2.64-2.76v-4.44h4.1v4.44c0 1.44 1.3 2.76 2.75 2.76h12c1.44 0 2.64-1.32 2.64-2.76v-4.44h6.83c1.56 0 2.76-1.2 2.76-2.76v-35.76c0-1.56-1.2-2.76-2.77-2.76zm-66.48-2.04c0-1.44-1.2-2.76-2.76-2.76h-8.53v5.52h5.88v47.04h-5.88v5.4H392c1.55 0 2.75-1.2 2.75-2.64v-52.56zm25.92 78.48c-30.12 0-54.6-24.48-54.6-54.6s24.48-54.6 54.6-54.6 54.6 24.48 54.6 54.6-24.48 54.6-54.6 54.6zm0-114.6c-33.12 0-60 26.88-60 60 0 33.12 26.88 60 60 60 33.12 0 60-26.88 60-60 0-33.12-26.88-60-60-60z" stroke="#000" stroke-opacity="0" fill="#8c4fff"/><use xlink:href="#e" transform="matrix(1,0,0,1,240.66666666666663,1302.776041666667) translate(133.35286458333334 21.52777777777778)"/><use xlink:href="#g" transform="matrix(1,0,0,1,240.66666666666663,1302.776041666667) translate(204.00173611111111 21.52777777777778)"/><path d="M712.35 946.3v-7.8l4.92 3.96-4.92 3.84zm-.96-15.6c-.85-.6-2.05-.72-2.9-.24-.95.36-1.55 1.32-1.55 2.4v19.08c0 1.08.6 2.04 1.56 2.52.37.12.73.24 1.1.24.7 0 1.3-.24 1.8-.6l11.87-9.6c.6-.48 1.08-1.2 1.08-2.04 0-.84-.48-1.68-1.08-2.16l-11.88-9.6zm65.4-9.24v-10.68l5.4 5.4-5.4 5.28zm11.15-7.2l-12-12c-.72-.72-1.92-.96-2.88-.6-1.08.48-1.68 1.44-1.68 2.52v9.24h-20.9V887.5c0-1.44-1.2-2.64-2.63-2.64h-21v5.4h18.24v23.16h-18.7v5.52h18.7v23.16h-18.23v5.4h21c1.44 0 2.64-1.2 2.64-2.64v-25.92h20.9v9.12c0 1.2.6 2.16 1.67 2.52.36.24.6.24.96.24.72 0 1.44-.24 1.92-.84l12-11.88c1.08-1.08 1.08-2.76 0-3.84zm-75.6 5.76v-7.68l4.92 3.84-4.92 3.84zm-.96-15.48c-.85-.72-2.05-.84-2.9-.36-.95.48-1.55 1.44-1.55 2.4v19.08c0 1.08.6 2.04 1.56 2.52.37.12.73.24 1.1.24.7 0 1.3-.24 1.8-.6l11.87-9.48c.6-.6 1.08-1.32 1.08-2.16 0-.84-.48-1.68-1.08-2.16l-11.88-9.48zm.95-13.08v-7.8l4.92 3.84-4.92 3.96zm-.96-15.6c-.85-.72-2.05-.84-2.9-.36-.95.48-1.55 1.44-1.55 2.52v19.08c0 1.08.6 1.92 1.56 2.4.37.24.73.36 1.1.36.7 0 1.3-.24 1.8-.6l11.87-9.6c.6-.48 1.08-1.32 1.08-2.16 0-.84-.48-1.56-1.08-2.04l-11.88-9.6zm29.27 92.52c-30.12 0-54.6-24.48-54.6-54.6s24.48-54.6 54.6-54.6 54.6 24.48 54.6 54.6-24.48 54.6-54.6 54.6zm0-114.6c-33.12 0-60 26.88-60 60 0 33.12 26.88 60 60 60 33.12 0 60-26.88 60-60 0-33.12-26.88-60-60-60z" stroke="#000" stroke-opacity="0" fill="#8c4fff"/><use xlink:href="#h" transform="matrix(1,0,0,1,560.6666666666666,982.7760416666669) translate(108.86284722222223 21.52777777777778)"/><use xlink:href="#i" transform="matrix(1,0,0,1,560.6666666666666,982.7760416666669) translate(159.64409722222223 21.52777777777778)"/><path d="M1056.23 598.22v-11.28h11.28v11.28h-11.27zm16.68 0v-11.28h11.3v11.28h-11.3zm-19.43 5.4h33.48c1.44 0 2.64-1.2 2.64-2.64v-16.8c0-1.44-1.2-2.64-2.65-2.64h-33.48c-1.44 0-2.64 1.2-2.64 2.64v16.8c0 1.44 1.2 2.64 2.64 2.64zm45 4.08h-6.72c-1.56 0-2.76 1.32-2.76 2.76v4.44h-6.5v-4.44c0-1.44-1.2-2.76-2.75-2.76h-9.48c-1.56 0-2.76 1.32-2.76 2.76v4.44h-18.47v-4.44c0-1.44-1.2-2.76-2.64-2.76h-2.05v-30.24h54.12v30.24zm2.76-35.76h-59.64c-1.57 0-2.77 1.2-2.77 2.76v35.76c0 1.56 1.2 2.76 2.76 2.76h2.03v4.44c0 1.44 1.2 2.76 2.76 2.76h23.87c1.44 0 2.64-1.32 2.64-2.76v-4.44h4.1v4.44c0 1.44 1.3 2.76 2.75 2.76h12c1.44 0 2.64-1.32 2.64-2.76v-4.44h6.83c1.56 0 2.76-1.2 2.76-2.76V574.7c0-1.56-1.2-2.76-2.77-2.76zm-66.48-2.04c0-1.44-1.2-2.76-2.76-2.76h-8.53v5.52h5.88v47.04h-5.88v5.4h8.52c1.55 0 2.75-1.2 2.75-2.64V569.9zm25.92 78.48c-30.12 0-54.6-24.48-54.6-54.6s24.48-54.6 54.6-54.6 54.6 24.48 54.6 54.6-24.48 54.6-54.6 54.6zm0-114.6c-33.12 0-60 26.88-60 60 0 33.12 26.88 60 60 60 33.12 0 60-26.88 60-60 0-33.12-26.88-60-60-60z" stroke="#000" stroke-opacity="0" fill="#8c4fff"/><use xlink:href="#j" transform="matrix(1,0,0,1,880.6666666666666,662.7760416666669) translate(129.53884548611111 21.52777777777778)"/><use xlink:href="#f" transform="matrix(1,0,0,1,880.6666666666666,662.7760416666669) translate(208.94422743055554 21.52777777777778)"/><path d="M1056.23 918.22v-11.28h11.28v11.28h-11.27zm16.68 0v-11.28h11.3v11.28h-11.3zm-19.43 5.4h33.48c1.44 0 2.64-1.2 2.64-2.64v-16.8c0-1.44-1.2-2.64-2.65-2.64h-33.48c-1.44 0-2.64 1.2-2.64 2.64v16.8c0 1.44 1.2 2.64 2.64 2.64zm45 4.08h-6.72c-1.56 0-2.76 1.32-2.76 2.76v4.44h-6.5v-4.44c0-1.44-1.2-2.76-2.75-2.76h-9.48c-1.56 0-2.76 1.32-2.76 2.76v4.44h-18.47v-4.44c0-1.44-1.2-2.76-2.64-2.76h-2.05v-30.24h54.12v30.24zm2.76-35.76h-59.64c-1.57 0-2.77 1.2-2.77 2.76v35.76c0 1.56 1.2 2.76 2.76 2.76h2.03v4.44c0 1.44 1.2 2.76 2.76 2.76h23.87c1.44 0 2.64-1.32 2.64-2.76v-4.44h4.1v4.44c0 1.44 1.3 2.76 2.75 2.76h12c1.44 0 2.64-1.32 2.64-2.76v-4.44h6.83c1.56 0 2.76-1.2 2.76-2.76V894.7c0-1.56-1.2-2.76-2.77-2.76zm-66.48-2.04c0-1.44-1.2-2.76-2.76-2.76h-8.53v5.52h5.88v47.04h-5.88v5.4h8.52c1.55 0 2.75-1.2 2.75-2.64V889.9zm25.92 78.48c-30.12 0-54.6-24.48-54.6-54.6s24.48-54.6 54.6-54.6 54.6 24.48 54.6 54.6-24.48 54.6-54.6 54.6zm0-114.6c-33.12 0-60 26.88-60 60 0 33.12 26.88 60 60 60 33.12 0 60-26.88 60-60 0-33.12-26.88-60-60-60z" stroke="#000" stroke-opacity="0" fill="#8c4fff"/><use xlink:href="#j" transform="matrix(1,0,0,1,880.6666666666666,982.7760416666669) translate(128.974609375 21.52777777777778)"/><use xlink:href="#g" transform="matrix(1,0,0,1,880.6666666666666,982.7760416666669) translate(208.37999131944446 21.52777777777778)"/><path d="M1320.67 853.78h120v120h-120z" fill="#ed7100"/><path d="M1390.92 902.02l-10.24 11.88 11.16 13h-4.13l-10-11.63v11.96h-2.98v-25.47h2.98v10.5l9.25-10.24h3.97zm25.77 24.1l-12.02-7.27v-17.1c0-.5-.3-1-.76-1.27l-17.2-10.08v-14.52l29.97 17.77v32.47zm2.2-34.6l-32.94-19.57c-.46-.26-1.07-.26-1.53 0-.46.25-.77.77-.77 1.36v17.96c0 .5.3 1.02.77 1.28l17.27 10.08v17.1c0 .6.23 1 .7 1.27l14.97 9.05c.23.08.54.17.77.17.3 0 .53-.1.76-.17.46-.26.77-.77.77-1.28V892.8c0-.6-.3-1.03-.77-1.3zm-37.53 62.53l-35.16-18.7v-41.7l29.97-17.77v14.52l-15.74 10.08c-.46.26-.7.77-.7 1.28v25.47c0 .6.3 1.1.77 1.36l20.18 10.42c.46.25.92.25 1.38.08l19.57-10.17 12 7.27-32.26 17.85zm36.08-19.13l-14.98-8.97c-.46-.26-1-.26-1.45 0l-19.65 10.08-18.65-9.74V902.6l15.82-10.08c.38-.26.7-.77.7-1.28V873.3c0-.58-.32-1.1-.77-1.35-.46-.26-1.08-.26-1.53 0L1344 891.5c-.47.27-.77.7-.77 1.3v43.4c0 .6.3 1.1.76 1.37l36.68 19.47c.23.1.46.18.7.18.22 0 .52-.1.75-.18l35.24-19.47c.46-.26.77-.77.77-1.3.07-.6-.23-1-.7-1.35z" stroke="#000" stroke-opacity="0" fill="#fff"/><use xlink:href="#k" transform="matrix(1,0,0,1,1200.6666666666665,982.7760416666669) translate(113.42556423611111 21.52777777777778)"/><use xlink:href="#l" transform="matrix(1,0,0,1,1200.6666666666665,982.7760416666669) translate(162.00412326388889 21.52777777777778)"/><path d="M482.67 913.78h175.26" stroke="#3a414a" stroke-width="4" fill="none"/><path d="M482.72 915.75h-2.12l.07-1.97-.1-1.98h2.15z" stroke="#3a414a" stroke-width=".05" fill="#3a414a"/><path d="M674.2 913.78l-14.27 4.63v-9.26z" stroke="#3a414a" stroke-width="4" fill="#3a414a"/><path d="M742.64 1227.85l-.1 1.18-.28 1.2-.48 1.17-.66 1.07-.8.95-.96.8-1.07.67-1.17.47-1.22.3-1.16.08H482.67v-3.95H734.6l.7-.06.6-.14.6-.24.53-.33.48-.4.42-.5.33-.53.24-.58.14-.62.05-.7v-215.92h3.94z" stroke="#3a414a" stroke-width=".05" fill="#3a414a"/><path d="M482.72 1235.75h-2.12l.07-1.97-.1-1.98h2.15z" fill="#3a414a"/><path stroke="#3a414a" stroke-width=".05" fill="#3a414a"/><path d="M742.46 985.78h-3.6l1.8-5.53z" fill="#3a414a"/><path d="M744.54 985.78h-7.75l3.87-11.92zM977.93 595.75h-71.2l-.7.06-.6.15-.6.25-.53.32-.47.4-.42.5-.3.53-.26.58-.14.62-.06.7v288l-.1 1.17-.28 1.22-.48 1.16-.66 1.07-.8.95-.96.8-1.07.67-1.17.47-1.22.3-1.16.08h-95.5v-3.95h95.35l.7-.05.6-.15.6-.24.53-.33.48-.4.42-.5.33-.53.24-.58.14-.62.05-.7v-288l.08-1.17.3-1.22.47-1.15.66-1.06.82-.97.96-.8 1.06-.67 1.16-.47 1.22-.3 1.17-.1h71.33z" stroke="#3a414a" stroke-width=".05" fill="#3a414a"/><path d="M799.28 895.75h-1.42l-.48-1.6-.93-2.35h2.83z" fill="#3a414a"/><path stroke="#3a414a" stroke-width=".05" fill="#3a414a"/><path d="M994.2 593.78l-14.27 4.63v-9.26z" fill="#3a414a"/><path d="M1000.6 593.78l-22.65 7.35v-14.7zm-18.7 1.9l5.9-1.9-5.9-1.92z" stroke="#3a414a" stroke-width=".05" fill="#3a414a"/><path d="M799.2 933.78h182.16" stroke="#3a414a" stroke-width="4" fill="none"/><path d="M799.26 935.75h-2.8l1.16-3.06.26-.9h1.38z" stroke="#3a414a" stroke-width=".05" fill="#3a414a"/><path d="M997.63 933.78l-14.27 4.63v-9.26z" stroke="#3a414a" stroke-width="4" fill="#3a414a"/><path d="M1375.9 591.9l1.23.3 1.16.46 1.06.66.95.8.82.97.66 1.05.48 1.16.3 1.23.08 1.17v231.34h-3.95v-231.2l-.06-.7-.15-.6-.25-.6-.33-.53-.4-.47-.5-.4-.53-.33-.6-.25-.6-.14-.7-.05h-251.93v-3.95h252.07z" stroke="#3a414a" stroke-width=".05" fill="#3a414a"/><path d="M1122.72 595.75h-2.12l.07-1.97-.1-1.98h2.15z" fill="#3a414a"/><path stroke="#3a414a" stroke-width=".05" fill="#3a414a"/><path d="M1380.67 847.3l-4.64-14.26h9.27z" fill="#3a414a"/><path d="M1380.67 853.7l-7.36-22.64h14.72zm-1.92-18.7l1.92 5.9 1.9-5.9z" stroke="#3a414a" stroke-width=".05" fill="#3a414a"/><path d="M1122.67 913.78h175.26" stroke="#3a414a" stroke-width="4" fill="none"/><path d="M1122.72 915.75h-2.12l.07-1.97-.1-1.98h2.15z" stroke="#3a414a" stroke-width=".05" fill="#3a414a"/><path d="M1314.2 913.78l-14.27 4.63v-9.26z" stroke="#3a414a" stroke-width="4" fill="#3a414a"/><path d="M280.67 386.9h1240v986.88h-1240z" stroke="#8c4fff" stroke-width="3" fill="#fff" fill-opacity="0"/><path d="M280.67 386.9h56v56h-56z" fill="#8c4fff"/><path d="M324.03 416.33l-4.1-1.76v14.68c3.55-.48 4.1-4.16 4.1-4.3v-8.62zm-5.52 12.96v-14.73l-4.23 1.76v8.7c0 .06.63 3.85 4.24 4.26zm.44-16.46c.2-.07.4-.07.55.04l5.5 2.35c.3.1.44.37.44.63v9.16c-.23 2.02-1.88 5.7-6.35 5.7-4.32 0-5.97-3.68-6.24-5.6v-9.26c0-.26.2-.52.43-.63l5.64-2.4zm7.92.92l-7.65-3.38-7.75 3.27v9.97c0 .07-.04 4 2.35 6.48 1.26 1.32 3.06 1.98 5.3 1.98 2.27 0 4.03-.66 5.36-1.98 2.44-2.47 2.4-6.44 2.4-6.48v-9.86zm-1.42 17.3c-1.56 1.6-3.68 2.42-6.35 2.42-2.63 0-4.75-.8-6.32-2.43-2.82-2.87-2.7-7.28-2.7-7.47v-10.4c0-.3.16-.56.43-.63l8.44-3.57c.2-.08.4-.08.55 0l8.33 3.68c.28.1.44.36.44.62v10.34c0 .18.04 4.56-2.83 7.43zm-29.4-10.24h11.2v1.4h-11.2c-3.92 0-6.74-2.83-6.97-7.03v-.52c0-3.53 1.84-5.92 5.33-7 0-.3-.04-.65-.04-.87 0-4.08 2.23-7.65 5.64-9.05 4.63-1.87 9.84-1.25 12.74 1.55 1.06 1.03 1.88 2.17 2.47 3.5.88-.63 1.97-.92 3.3-.85 2.5.1 4.44 2.4 4.83 5.6 2.07.18 3.5 1.24 4.2 3.23l-1.3.48c-.6-1.62-1.7-2.36-3.57-2.36-.35 0-.67-.25-.67-.66-.2-3.24-2-4.82-3.57-4.9-1.33-.07-2.3.3-2.9 1.1-.16.2-.4.3-.67.27-.24-.03-.47-.2-.55-.43-.58-1.55-1.4-2.84-2.54-3.94-2.5-2.43-7.13-2.94-11.25-1.25-2.85 1.18-4.73 4.2-4.73 7.73 0 .37.04.96.08 1.33.04.37-.16.7-.5.77-3.23.8-4.87 2.73-4.87 5.78v.4c.2 3.5 2.4 5.74 5.56 5.74z" stroke="#fff" stroke-opacity="0" fill="#fff"/><use xlink:href="#c" transform="matrix(1,0,0,1,351.66666666666663,406.8880208333335) translate(0 21.52777777777778)"/><use xlink:href="#d" transform="matrix(1,0,0,1,351.66666666666663,406.8880208333335) translate(52.00737847222222 21.52777777777778)"/><path d="M416.23 918.22v-11.28h11.28v11.28h-11.27zm16.68 0v-11.28h11.3v11.28h-11.3zm-19.43 5.4h33.48c1.44 0 2.64-1.2 2.64-2.64v-16.8c0-1.44-1.2-2.64-2.65-2.64h-33.48c-1.44 0-2.64 1.2-2.64 2.64v16.8c0 1.44 1.2 2.64 2.64 2.64zm45 4.08h-6.72c-1.56 0-2.76 1.32-2.76 2.76v4.44h-6.5v-4.44c0-1.44-1.2-2.76-2.75-2.76h-9.48c-1.56 0-2.76 1.32-2.76 2.76v4.44h-18.47v-4.44c0-1.44-1.2-2.76-2.64-2.76h-2.05v-30.24h54.12v30.24zm2.76-35.76H401.6c-1.57 0-2.77 1.2-2.77 2.76v35.76c0 1.56 1.2 2.76 2.76 2.76h2.03v4.44c0 1.44 1.2 2.76 2.76 2.76h23.87c1.44 0 2.64-1.32 2.64-2.76v-4.44h4.1v4.44c0 1.44 1.3 2.76 2.75 2.76h12c1.44 0 2.64-1.32 2.64-2.76v-4.44h6.83c1.56 0 2.76-1.2 2.76-2.76V894.7c0-1.56-1.2-2.76-2.77-2.76zm-66.48-2.04c0-1.44-1.2-2.76-2.76-2.76h-8.53v5.52h5.88v47.04h-5.88v5.4H392c1.55 0 2.75-1.2 2.75-2.64V889.9zm25.92 78.48c-30.12 0-54.6-24.48-54.6-54.6s24.48-54.6 54.6-54.6 54.6 24.48 54.6 54.6-24.48 54.6-54.6 54.6zm0-114.6c-33.12 0-60 26.88-60 60 0 33.12 26.88 60 60 60 33.12 0 60-26.88 60-60 0-33.12-26.88-60-60-60z" stroke="#000" stroke-opacity="0" fill="#8c4fff"/><use xlink:href="#e" transform="matrix(1,0,0,1,240.66666666666663,982.7760416666669) translate(133.91710069444446 21.52777777777778)"/><use xlink:href="#f" transform="matrix(1,0,0,1,240.66666666666663,982.7760416666669) translate(204.56597222222223 21.52777777777778)"/><path d="M416.23 1238.22v-11.28h11.28v11.28h-11.27zm16.68 0v-11.28h11.3v11.28h-11.3zm-19.43 5.4h33.48c1.44 0 2.64-1.2 2.64-2.64v-16.8c0-1.44-1.2-2.64-2.65-2.64h-33.48c-1.44 0-2.64 1.2-2.64 2.64v16.8c0 1.44 1.2 2.64 2.64 2.64zm45 4.08h-6.72c-1.56 0-2.76 1.32-2.76 2.76v4.44h-6.5v-4.44c0-1.44-1.2-2.76-2.75-2.76h-9.48c-1.56 0-2.76 1.32-2.76 2.76v4.44h-18.47v-4.44c0-1.44-1.2-2.76-2.64-2.76h-2.05v-30.24h54.12v30.24zm2.76-35.76H401.6c-1.57 0-2.77 1.2-2.77 2.76v35.76c0 1.56 1.2 2.76 2.76 2.76h2.03v4.44c0 1.44 1.2 2.76 2.76 2.76h23.87c1.44 0 2.64-1.32 2.64-2.76v-4.44h4.1v4.44c0 1.44 1.3 2.76 2.75 2.76h12c1.44 0 2.64-1.32 2.64-2.76v-4.44h6.83c1.56 0 2.76-1.2 2.76-2.76v-35.76c0-1.56-1.2-2.76-2.77-2.76zm-66.48-2.04c0-1.44-1.2-2.76-2.76-2.76h-8.53v5.52h5.88v47.04h-5.88v5.4H392c1.55 0 2.75-1.2 2.75-2.64v-52.56zm25.92 78.48c-30.12 0-54.6-24.48-54.6-54.6s24.48-54.6 54.6-54.6 54.6 24.48 54.6 54.6-24.48 54.6-54.6 54.6zm0-114.6c-33.12 0-60 26.88-60 60 0 33.12 26.88 60 60 60 33.12 0 60-26.88 60-60 0-33.12-26.88-60-60-60z" stroke="#000" stroke-opacity="0" fill="#8c4fff"/><use xlink:href="#e" transform="matrix(1,0,0,1,240.66666666666663,1302.776041666667) translate(133.35286458333334 21.52777777777778)"/><use xlink:href="#g" transform="matrix(1,0,0,1,240.66666666666663,1302.776041666667) translate(204.00173611111111 21.52777777777778)"/><path d="M712.35 946.3v-7.8l4.92 3.96-4.92 3.84zm-.96-15.6c-.85-.6-2.05-.72-2.9-.24-.95.36-1.55 1.32-1.55 2.4v19.08c0 1.08.6 2.04 1.56 2.52.37.12.73.24 1.1.24.7 0 1.3-.24 1.8-.6l11.87-9.6c.6-.48 1.08-1.2 1.08-2.04 0-.84-.48-1.68-1.08-2.16l-11.88-9.6zm65.4-9.24v-10.68l5.4 5.4-5.4 5.28zm11.15-7.2l-12-12c-.72-.72-1.92-.96-2.88-.6-1.08.48-1.68 1.44-1.68 2.52v9.24h-20.9V887.5c0-1.44-1.2-2.64-2.63-2.64h-21v5.4h18.24v23.16h-18.7v5.52h18.7v23.16h-18.23v5.4h21c1.44 0 2.64-1.2 2.64-2.64v-25.92h20.9v9.12c0 1.2.6 2.16 1.67 2.52.36.24.6.24.96.24.72 0 1.44-.24 1.92-.84l12-11.88c1.08-1.08 1.08-2.76 0-3.84zm-75.6 5.76v-7.68l4.92 3.84-4.92 3.84zm-.96-15.48c-.85-.72-2.05-.84-2.9-.36-.95.48-1.55 1.44-1.55 2.4v19.08c0 1.08.6 2.04 1.56 2.52.37.12.73.24 1.1.24.7 0 1.3-.24 1.8-.6l11.87-9.48c.6-.6 1.08-1.32 1.08-2.16 0-.84-.48-1.68-1.08-2.16l-11.88-9.48zm.95-13.08v-7.8l4.92 3.84-4.92 3.96zm-.96-15.6c-.85-.72-2.05-.84-2.9-.36-.95.48-1.55 1.44-1.55 2.52v19.08c0 1.08.6 1.92 1.56 2.4.37.24.73.36 1.1.36.7 0 1.3-.24 1.8-.6l11.87-9.6c.6-.48 1.08-1.32 1.08-2.16 0-.84-.48-1.56-1.08-2.04l-11.88-9.6zm29.27 92.52c-30.12 0-54.6-24.48-54.6-54.6s24.48-54.6 54.6-54.6 54.6 24.48 54.6 54.6-24.48 54.6-54.6 54.6zm0-114.6c-33.12 0-60 26.88-60 60 0 33.12 26.88 60 60 60 33.12 0 60-26.88 60-60 0-33.12-26.88-60-60-60z" stroke="#000" stroke-opacity="0" fill="#8c4fff"/><use xlink:href="#h" transform="matrix(1,0,0,1,560.6666666666666,982.7760416666669) translate(108.86284722222223 21.52777777777778)"/><use xlink:href="#i" transform="matrix(1,0,0,1,560.6666666666666,982.7760416666669) translate(159.64409722222223 21.52777777777778)"/><path d="M1056.23 598.22v-11.28h11.28v11.28h-11.27zm16.68 0v-11.28h11.3v11.28h-11.3zm-19.43 5.4h33.48c1.44 0 2.64-1.2 2.64-2.64v-16.8c0-1.44-1.2-2.64-2.65-2.64h-33.48c-1.44 0-2.64 1.2-2.64 2.64v16.8c0 1.44 1.2 2.64 2.64 2.64zm45 4.08h-6.72c-1.56 0-2.76 1.32-2.76 2.76v4.44h-6.5v-4.44c0-1.44-1.2-2.76-2.75-2.76h-9.48c-1.56 0-2.76 1.32-2.76 2.76v4.44h-18.47v-4.44c0-1.44-1.2-2.76-2.64-2.76h-2.05v-30.24h54.12v30.24zm2.76-35.76h-59.64c-1.57 0-2.77 1.2-2.77 2.76v35.76c0 1.56 1.2 2.76 2.76 2.76h2.03v4.44c0 1.44 1.2 2.76 2.76 2.76h23.87c1.44 0 2.64-1.32 2.64-2.76v-4.44h4.1v4.44c0 1.44 1.3 2.76 2.75 2.76h12c1.44 0 2.64-1.32 2.64-2.76v-4.44h6.83c1.56 0 2.76-1.2 2.76-2.76V574.7c0-1.56-1.2-2.76-2.77-2.76zm-66.48-2.04c0-1.44-1.2-2.76-2.76-2.76h-8.53v5.52h5.88v47.04h-5.88v5.4h8.52c1.55 0 2.75-1.2 2.75-2.64V569.9zm25.92 78.48c-30.12 0-54.6-24.48-54.6-54.6s24.48-54.6 54.6-54.6 54.6 24.48 54.6 54.6-24.48 54.6-54.6 54.6zm0-114.6c-33.12 0-60 26.88-60 60 0 33.12 26.88 60 60 60 33.12 0 60-26.88 60-60 0-33.12-26.88-60-60-60z" stroke="#000" stroke-opacity="0" fill="#8c4fff"/><use xlink:href="#j" transform="matrix(1,0,0,1,880.6666666666666,662.7760416666669) translate(129.53884548611111 21.52777777777778)"/><use xlink:href="#f" transform="matrix(1,0,0,1,880.6666666666666,662.7760416666669) translate(208.94422743055554 21.52777777777778)"/><path d="M1056.23 918.22v-11.28h11.28v11.28h-11.27zm16.68 0v-11.28h11.3v11.28h-11.3zm-19.43 5.4h33.48c1.44 0 2.64-1.2 2.64-2.64v-16.8c0-1.44-1.2-2.64-2.65-2.64h-33.48c-1.44 0-2.64 1.2-2.64 2.64v16.8c0 1.44 1.2 2.64 2.64 2.64zm45 4.08h-6.72c-1.56 0-2.76 1.32-2.76 2.76v4.44h-6.5v-4.44c0-1.44-1.2-2.76-2.75-2.76h-9.48c-1.56 0-2.76 1.32-2.76 2.76v4.44h-18.47v-4.44c0-1.44-1.2-2.76-2.64-2.76h-2.05v-30.24h54.12v30.24zm2.76-35.76h-59.64c-1.57 0-2.77 1.2-2.77 2.76v35.76c0 1.56 1.2 2.76 2.76 2.76h2.03v4.44c0 1.44 1.2 2.76 2.76 2.76h23.87c1.44 0 2.64-1.32 2.64-2.76v-4.44h4.1v4.44c0 1.44 1.3 2.76 2.75 2.76h12c1.44 0 2.64-1.32 2.64-2.76v-4.44h6.83c1.56 0 2.76-1.2 2.76-2.76V894.7c0-1.56-1.2-2.76-2.77-2.76zm-66.48-2.04c0-1.44-1.2-2.76-2.76-2.76h-8.53v5.52h5.88v47.04h-5.88v5.4h8.52c1.55 0 2.75-1.2 2.75-2.64V889.9zm25.92 78.48c-30.12 0-54.6-24.48-54.6-54.6s24.48-54.6 54.6-54.6 54.6 24.48 54.6 54.6-24.48 54.6-54.6 54.6zm0-114.6c-33.12 0-60 26.88-60 60 0 33.12 26.88 60 60 60 33.12 0 60-26.88 60-60 0-33.12-26.88-60-60-60z" stroke="#000" stroke-opacity="0" fill="#8c4fff"/><use xlink:href="#j" transform="matrix(1,0,0,1,880.6666666666666,982.7760416666669) translate(128.974609375 21.52777777777778)"/><use xlink:href="#g" transform="matrix(1,0,0,1,880.6666666666666,982.7760416666669) translate(208.37999131944446 21.52777777777778)"/><path d="M1320.67 853.78h120v120h-120z" fill="#ed7100"/><path d="M1390.92 902.02l-10.24 11.88 11.16 13h-4.13l-10-11.63v11.96h-2.98v-25.47h2.98v10.5l9.25-10.24h3.97zm25.77 24.1l-12.02-7.27v-17.1c0-.5-.3-1-.76-1.27l-17.2-10.08v-14.52l29.97 17.77v32.47zm2.2-34.6l-32.94-19.57c-.46-.26-1.07-.26-1.53 0-.46.25-.77.77-.77 1.36v17.96c0 .5.3 1.02.77 1.28l17.27 10.08v17.1c0 .6.23 1 .7 1.27l14.97 9.05c.23.08.54.17.77.17.3 0 .53-.1.76-.17.46-.26.77-.77.77-1.28V892.8c0-.6-.3-1.03-.77-1.3zm-37.53 62.53l-35.16-18.7v-41.7l29.97-17.77v14.52l-15.74 10.08c-.46.26-.7.77-.7 1.28v25.47c0 .6.3 1.1.77 1.36l20.18 10.42c.46.25.92.25 1.38.08l19.57-10.17 12 7.27-32.26 17.85zm36.08-19.13l-14.98-8.97c-.46-.26-1-.26-1.45 0l-19.65 10.08-18.65-9.74V902.6l15.82-10.08c.38-.26.7-.77.7-1.28V873.3c0-.58-.32-1.1-.77-1.35-.46-.26-1.08-.26-1.53 0L1344 891.5c-.47.27-.77.7-.77 1.3v43.4c0 .6.3 1.1.76 1.37l36.68 19.47c.23.1.46.18.7.18.22 0 .52-.1.75-.18l35.24-19.47c.46-.26.77-.77.77-1.3.07-.6-.23-1-.7-1.35z" stroke="#000" stroke-opacity="0" fill="#fff"/><use xlink:href="#k" transform="matrix(1,0,0,1,1200.6666666666665,982.7760416666669) translate(113.42556423611111 21.52777777777778)"/><use xlink:href="#l" transform="matrix(1,0,0,1,1200.6666666666665,982.7760416666669) translate(162.00412326388889 21.52777777777778)"/><path d="M482.67 913.78h175.26" stroke="#3a414a" stroke-width="4" fill="none"/><path d="M482.72 915.75h-2.12l.07-1.97-.1-1.98h2.15z" stroke="#3a414a" stroke-width=".05" fill="#3a414a"/><path d="M674.2 913.78l-14.27 4.63v-9.26z" stroke="#3a414a" stroke-width="4" fill="#3a414a"/><path d="M742.64 1227.85l-.1 1.18-.28 1.2-.48 1.17-.66 1.07-.8.95-.96.8-1.07.67-1.17.47-1.22.3-1.16.08H482.67v-3.95H734.6l.7-.06.6-.14.6-.24.53-.33.48-.4.42-.5.33-.53.24-.58.14-.62.05-.7v-215.92h3.94z" stroke="#3a414a" stroke-width=".05" fill="#3a414a"/><path d="M482.72 1235.75h-2.12l.07-1.97-.1-1.98h2.15z" fill="#3a414a"/><path stroke="#3a414a" stroke-width=".05" fill="#3a414a"/><path d="M742.46 985.78h-3.6l1.8-5.53z" fill="#3a414a"/><path d="M744.54 985.78h-7.75l3.87-11.92zM977.93 595.75h-71.2l-.7.06-.6.15-.6.25-.53.32-.47.4-.42.5-.3.53-.26.58-.14.62-.06.7v288l-.1 1.17-.28 1.22-.48 1.16-.66 1.07-.8.95-.96.8-1.07.67-1.17.47-1.22.3-1.16.08h-95.5v-3.95h95.35l.7-.05.6-.15.6-.24.53-.33.48-.4.42-.5.33-.53.24-.58.14-.62.05-.7v-288l.08-1.17.3-1.22.47-1.15.66-1.06.82-.97.96-.8 1.06-.67 1.16-.47 1.22-.3 1.17-.1h71.33z" stroke="#3a414a" stroke-width=".05" fill="#3a414a"/><path d="M799.28 895.75h-1.42l-.48-1.6-.93-2.35h2.83z" fill="#3a414a"/><path stroke="#3a414a" stroke-width=".05" fill="#3a414a"/><path d="M994.2 593.78l-14.27 4.63v-9.26z" fill="#3a414a"/><path d="M1000.6 593.78l-22.65 7.35v-14.7zm-18.7 1.9l5.9-1.9-5.9-1.92z" stroke="#3a414a" stroke-width=".05" fill="#3a414a"/><path d="M799.2 933.78h182.16" stroke="#3a414a" stroke-width="4" fill="none"/><path d="M799.26 935.75h-2.8l1.16-3.06.26-.9h1.38z" stroke="#3a414a" stroke-width=".05" fill="#3a414a"/><path d="M997.63 933.78l-14.27 4.63v-9.26z" stroke="#3a414a" stroke-width="4" fill="#3a414a"/><path d="M1375.9 591.9l1.23.3 1.16.46 1.06.66.95.8.82.97.66 1.05.48 1.16.3 1.23.08 1.17v231.34h-3.95v-231.2l-.06-.7-.15-.6-.25-.6-.33-.53-.4-.47-.5-.4-.53-.33-.6-.25-.6-.14-.7-.05h-251.93v-3.95h252.07z" stroke="#3a414a" stroke-width=".05" fill="#3a414a"/><path d="M1122.72 595.75h-2.12l.07-1.97-.1-1.98h2.15z" fill="#3a414a"/><path stroke="#3a414a" stroke-width=".05" fill="#3a414a"/><path d="M1380.67 847.3l-4.64-14.26h9.27z" fill="#3a414a"/><path d="M1380.67 853.7l-7.36-22.64h14.72zm-1.92-18.7l1.92 5.9 1.9-5.9z" stroke="#3a414a" stroke-width=".05" fill="#3a414a"/><path d="M1122.67 913.78h175.26" stroke="#3a414a" stroke-width="4" fill="none"/><path d="M1122.72 915.75h-2.12l.07-1.97-.1-1.98h2.15z" stroke="#3a414a" stroke-width=".05" fill="#3a414a"/><path d="M1314.2 913.78l-14.27 4.63v-9.26z" stroke="#3a414a" stroke-width="4" fill="#3a414a"/><defs><path d="M52 0l541-1490h220L1361 0h-200l-149-416H398L254 0H52zm404-582h497c-103-290-145-390-251-756-108 377-145 460-246 756" id="m"/><path d="M458 0L52-1490h194c108 439 233 855 324 1313 92-459 221-873 331-1313h216c110 438 234 854 330 1307 92-455 216-869 323-1307h196L1558 0h-221l-256-944c-26-95-50-200-73-331-22 122-44 223-73 331L680 0H458" id="n"/><path d="M657 26c-323 0-524-166-541-416h195c15 169 171 246 346 246 202 0 356-106 356-265 5-203-294-238-475-293-239-73-380-191-380-389 0-252 224-419 512-419 294 0 499 171 508 396H992c-17-145-151-228-328-228-193 0-321 102-321 242 0 156 175 211 284 241l149 41c160 44 422 134 422 412 0 244-197 432-541 432" id="o"/><g id="a"><use transform="matrix(0.010850694444444444,0,0,0.010850694444444444,0,0)" xlink:href="#m"/><use transform="matrix(0.010850694444444444,0,0,0.010850694444444444,14.073350694444445,0)" xlink:href="#n"/><use transform="matrix(0.010850694444444444,0,0,0.010850694444444444,35.970052083333336,0)" xlink:href="#o"/></g><path d="M628 24c-324 0-524-230-524-574 0-343 198-582 503-582 237 0 487 146 487 559v75H286c9 234 145 362 343 362 132 0 231-58 273-172l174 48C1024-91 857 24 628 24zM287-650h624c-17-190-120-322-304-322-192 0-309 151-320 322" id="p"/><path d="M537 14c-226 0-379-139-379-422v-710h180v695c0 172 97 275 253 275 160 0 281-109 281-300v-670h181V0H879v-209C806-46 684 14 537 14" id="q"/><path d="M798-719v166H144v-166h654" id="r"/><path d="M613 24c-304 0-509-231-509-576 0-350 205-580 509-580 216 0 392 114 453 309l-173 49c-33-115-133-197-280-197-223 0-326 196-326 419 0 220 103 415 326 415 150 0 252-85 285-206l172 49C1010-95 832 24 613 24" id="s"/><path d="M338-670V0H158v-1118h173l1 207c72-158 192-221 342-221 226 0 378 139 378 422V0H872v-695c0-172-96-275-252-275-161 0-282 109-282 300" id="t"/><path d="M598-1118v154H368v674c0 100 37 144 132 144 23 0 62-6 92-12L629-6c-37 13-88 20-134 20-193 0-307-107-307-290v-688H20v-154h168v-266h180v266h230" id="u"/><path d="M158 0v-1118h174v172h12c41-113 157-188 290-188 26 0 70 2 91 3v181c-11-2-60-10-108-10-161 0-279 109-279 260V0H158" id="v"/><path d="M471 26C259 26 90-98 90-318c0-256 228-303 435-329 202-27 287-16 287-108 0-139-79-219-234-219-161 0-248 86-283 164l-173-57c86-203 278-265 451-265 150 0 419 46 419 395V0H815v-152h-12C765-73 660 26 471 26zm31-159c199 0 310-134 310-271v-155c-30 35-226 55-295 64-131 17-246 59-246 186 0 116 97 176 231 176" id="w"/><path d="M338-1490V0H158v-1490h180" id="x"/><path d="M653-1490V0H466v-1314h-10L96-1047v-204l324-239h233" id="y"/><g id="b"><use transform="matrix(0.010850694444444444,0,0,0.010850694444444444,0,0)" xlink:href="#p"/><use transform="matrix(0.010850694444444444,0,0,0.010850694444444444,12.955729166666666,0)" xlink:href="#q"/><use transform="matrix(0.010850694444444444,0,0,0.010850694444444444,25.21701388888889,0)" xlink:href="#r"/><use transform="matrix(0.010850694444444444,0,0,0.010850694444444444,35.43836805555555,0)" xlink:href="#s"/><use transform="matrix(0.010850694444444444,0,0,0.010850694444444444,48.13368055555556,0)" xlink:href="#p"/><use transform="matrix(0.010850694444444444,0,0,0.010850694444444444,61.08940972222221,0)" xlink:href="#t"/><use transform="matrix(0.010850694444444444,0,0,0.010850694444444444,74.21874999999999,0)" xlink:href="#u"/><use transform="matrix(0.010850694444444444,0,0,0.010850694444444444,81.48871527777776,0)" xlink:href="#v"/><use transform="matrix(0.010850694444444444,0,0,0.010850694444444444,89.85460069444441,0)" xlink:href="#w"/><use transform="matrix(0.010850694444444444,0,0,0.010850694444444444,102.33289930555556,0)" xlink:href="#x"/><use transform="matrix(0.010850694444444444,0,0,0.010850694444444444,107.71484374999997,0)" xlink:href="#r"/><use transform="matrix(0.010850694444444444,0,0,0.010850694444444444,117.93619791666666,0)" xlink:href="#y"/></g><path d="M600 0L52-1490h200c166 485 304 806 458 1336 156-533 285-846 449-1336h202L819 0H600" id="z"/><path d="M180 0v-1490h510c348 0 508 209 508 474 0 266-160 477-507 477H370V0H180zm190-706h312c236 0 327-133 327-310 0-176-91-307-329-307H370v617" id="A"/><path d="M783 20c-382 0-661-292-661-764 0-473 279-766 661-766 302 0 548 182 601 489h-190c-42-204-217-313-411-313-268 0-476 208-476 590 0 381 209 588 476 588 195 0 369-110 411-313h190c-52 303-296 489-601 489" id="B"/><g id="c"><use transform="matrix(0.010850694444444444,0,0,0.010850694444444444,0,0)" xlink:href="#z"/><use transform="matrix(0.010850694444444444,0,0,0.010850694444444444,15.33203125,0)" xlink:href="#A"/><use transform="matrix(0.010850694444444444,0,0,0.010850694444444444,29.524739583333332,0)" xlink:href="#B"/></g><path d="M646 20c-332 0-524-278-524-764 0-483 194-766 524-766s524 283 524 766c0 485-191 764-524 764zm0-166c218 0 341-220 341-598 0-380-123-601-341-601s-341 222-341 601c0 378 123 598 341 598" id="C"/><path d="M295 13c-75 0-135-60-135-135s60-135 135-135 135 60 135 135S370 13 295 13" id="D"/><path d="M692-1560L212 224H46l480-1784h166" id="E"/><path d="M646 20c-249 0-524-159-524-708 0-524 209-822 547-822 250 0 431 161 467 395H950c-33-129-126-227-281-227-229 0-367 208-367 566h12c80-124 212-198 367-198 255 0 467 205 467 493 0 278-198 501-502 501zm0-167c179 0 318-148 318-334 0-182-133-328-313-328-181 0-322 156-322 330 0 176 134 332 317 332" id="F"/><g id="d"><use transform="matrix(0.010850694444444444,0,0,0.010850694444444444,0,0)" xlink:href="#y"/><use transform="matrix(0.010850694444444444,0,0,0.010850694444444444,9.038628472222221,0)" xlink:href="#C"/><use transform="matrix(0.010850694444444444,0,0,0.010850694444444444,22.493489583333332,0)" xlink:href="#D"/><use transform="matrix(0.010850694444444444,0,0,0.010850694444444444,28.331163194444443,0)" xlink:href="#C"/><use transform="matrix(0.010850694444444444,0,0,0.010850694444444444,41.78602430555556,0)" xlink:href="#D"/><use transform="matrix(0.010850694444444444,0,0,0.010850694444444444,47.623697916666664,0)" xlink:href="#C"/><use transform="matrix(0.010850694444444444,0,0,0.010850694444444444,61.07855902777778,0)" xlink:href="#D"/><use transform="matrix(0.010850694444444444,0,0,0.010850694444444444,66.91623263888889,0)" xlink:href="#C"/><use transform="matrix(0.010850694444444444,0,0,0.010850694444444444,80.93532986111111,0)" xlink:href="#E"/><use transform="matrix(0.010850694444444444,0,0,0.010850694444444444,88.94314236111111,0)" xlink:href="#y"/><use transform="matrix(0.010850694444444444,0,0,0.010850694444444444,97.98177083333334,0)" xlink:href="#F"/></g><path d="M677 24c-213 0-288-135-325-197h-20V0H158v-1490h180v551h14c37-59 106-193 324-193 279 0 474 222 474 576 0 356-194 580-473 580zm-27-161c209 0 317-186 317-421 0-232-105-413-317-413-206 0-314 166-314 413 0 249 111 421 314 421" id="G"/><path d="M158 0v-1118h180V0H158zm91-1301c-68 0-125-53-125-119s57-119 125-119c69 0 126 53 126 119s-57 119-126 119" id="H"/><g id="e"><use transform="matrix(0.010850694444444444,0,0,0.010850694444444444,0,0)" xlink:href="#A"/><use transform="matrix(0.010850694444444444,0,0,0.010850694444444444,14.192708333333332,0)" xlink:href="#q"/><use transform="matrix(0.010850694444444444,0,0,0.010850694444444444,27.332899305555554,0)" xlink:href="#G"/><use transform="matrix(0.010850694444444444,0,0,0.010850694444444444,40.939670138888886,0)" xlink:href="#x"/><use transform="matrix(0.010850694444444444,0,0,0.010850694444444444,46.32161458333333,0)" xlink:href="#H"/><use transform="matrix(0.010850694444444444,0,0,0.010850694444444444,51.70355902777778,0)" xlink:href="#s"/></g><g id="f"><use transform="matrix(0.010850694444444444,0,0,0.010850694444444444,0,0)" xlink:href="#y"/><use transform="matrix(0.010850694444444444,0,0,0.010850694444444444,9.038628472222221,0)" xlink:href="#w"/></g><g id="g"><use transform="matrix(0.010850694444444444,0,0,0.010850694444444444,0,0)" xlink:href="#y"/><use transform="matrix(0.010850694444444444,0,0,0.010850694444444444,9.038628472222221,0)" xlink:href="#G"/></g><path d="M180 0v-1490h224l606 953c40 63 108 177 176 312-27-437-7-821-13-1265h190V0h-226C860-448 622-778 356-1262c27 476 11 792 15 1262H180" id="I"/><path d="M98-1322v-168h1126v168H757V0H567v-1322H98" id="J"/><g id="h"><use transform="matrix(0.010850694444444444,0,0,0.010850694444444444,0,0)" xlink:href="#I"/><use transform="matrix(0.010850694444444444,0,0,0.010850694444444444,16.74262152777778,0)" xlink:href="#m"/><use transform="matrix(0.010850694444444444,0,0,0.010850694444444444,30.186631944444443,0)" xlink:href="#J"/></g><path d="M789 20c-398 0-667-293-667-764 0-473 273-766 655-766 315 0 558 198 612 487h-196c-61-191-204-311-415-311-262 0-471 207-471 590 0 380 208 588 482 588 249 0 420-165 425-427H828v-166h572v163c0 370-256 606-611 606" id="K"/><path d="M409 0L70-1118h191c89 329 165 560 243 925 75-353 154-601 240-925h192c85 325 161 564 235 922 77-354 157-598 244-922h191L1267 0h-179c-86-307-176-590-250-913C763-588 675-308 588 0H409" id="L"/><path d="M140 405l46-156c120 36 205 19 263-150l32-93L54-1118h197c107 313 237 620 324 950 87-331 219-637 326-950h196L606 167c-68 178-176 259-334 259-64 0-113-12-132-21" id="M"/><g id="i"><use transform="matrix(0.010850694444444444,0,0,0.010850694444444444,0,0)" xlink:href="#K"/><use transform="matrix(0.010850694444444444,0,0,0.010850694444444444,16.57986111111111,0)" xlink:href="#w"/><use transform="matrix(0.010850694444444444,0,0,0.010850694444444444,29.05815972222222,0)" xlink:href="#u"/><use transform="matrix(0.010850694444444444,0,0,0.010850694444444444,36.11111111111111,0)" xlink:href="#p"/><use transform="matrix(0.010850694444444444,0,0,0.010850694444444444,48.66536458333333,0)" xlink:href="#L"/><use transform="matrix(0.010850694444444444,0,0,0.010850694444444444,66.85112847222221,0)" xlink:href="#w"/><use transform="matrix(0.010850694444444444,0,0,0.010850694444444444,79.00390625,0)" xlink:href="#M"/></g><path d="M481 0L54-1118h197c107 314 236 620 325 951 87-331 217-637 324-951h197L670 0H481" id="N"/><g id="j"><use transform="matrix(0.010850694444444444,0,0,0.010850694444444444,0,0)" xlink:href="#A"/><use transform="matrix(0.010850694444444444,0,0,0.010850694444444444,14.192708333333332,0)" xlink:href="#v"/><use transform="matrix(0.010850694444444444,0,0,0.010850694444444444,22.90581597222222,0)" xlink:href="#H"/><use transform="matrix(0.010850694444444444,0,0,0.010850694444444444,28.287760416666664,0)" xlink:href="#N"/><use transform="matrix(0.010850694444444444,0,0,0.010850694444444444,40.66840277777778,0)" xlink:href="#w"/><use transform="matrix(0.010850694444444444,0,0,0.010850694444444444,53.146701388888886,0)" xlink:href="#u"/><use transform="matrix(0.010850694444444444,0,0,0.010850694444444444,60.19965277777778,0)" xlink:href="#p"/></g><path d="M180 0v-1490h908v168H370v486h669v168H370v500h727V0H180" id="O"/><path d="M180 0v-1490h190c0 262 1 526-3 784 217-279 467-523 702-784h249L716-845 1319 0h-225L585-716 370-489V0H180" id="P"/><g id="k"><use transform="matrix(0.010850694444444444,0,0,0.010850694444444444,0,0)" xlink:href="#O"/><use transform="matrix(0.010850694444444444,0,0,0.010850694444444444,13.35720486111111,0)" xlink:href="#P"/><use transform="matrix(0.010850694444444444,0,0,0.010850694444444444,28.070746527777775,0)" xlink:href="#o"/></g><path d="M613 24c-304 0-509-231-509-576 0-350 205-580 509-580 305 0 511 230 511 580 0 345-206 576-511 576zm0-161c226 0 329-195 329-415 0-222-103-419-329-419-223 0-326 196-326 419 0 220 103 415 326 415" id="Q"/><path d="M577 24c-279 0-473-224-473-580 0-354 195-576 474-576 218 0 287 134 324 193h14v-551h180V0H922v-173h-20C865-111 790 24 577 24zm27-161c203 0 314-172 314-421 0-247-108-413-314-413-212 0-317 181-317 413 0 235 108 421 317 421" id="R"/><path d="M218-607c0-325 108-727 258-974h175c-155 315-250 682-250 974 0 265 78 531 250 886H476C306-10 218-315 218-607" id="S"/><path d="M538 24C308 24 148-78 108-271l171-41c32 123 123 178 257 178 156 0 256-77 256-169 0-77-54-128-164-154l-186-44c-203-48-300-148-300-305 0-192 176-326 414-326 230 0 351 112 402 269l-163 42c-31-80-94-158-238-158-133 0-233 69-233 162 0 83 57 129 188 160l169 40c203 48 298 149 298 302 0 196-179 339-441 339" id="T"/><path d="M96 279C273-86 346-350 346-607c0-292-95-659-250-974h175c150 246 258 650 258 974 0 297-91 602-258 886H96" id="U"/><g id="l"><use transform="matrix(0.010850694444444444,0,0,0.010850694444444444,0,0)" xlink:href="#I"/><use transform="matrix(0.010850694444444444,0,0,0.010850694444444444,16.74262152777778,0)" xlink:href="#Q"/><use transform="matrix(0.010850694444444444,0,0,0.010850694444444444,30.06727430555556,0)" xlink:href="#R"/><use transform="matrix(0.010850694444444444,0,0,0.010850694444444444,43.674045138888886,0)" xlink:href="#p"/><use transform="matrix(0.010850694444444444,0,0,0.010850694444444444,56.62977430555555,0)" xlink:href="#S"/><use transform="matrix(0.010850694444444444,0,0,0.010850694444444444,64.73524305555554,0)" xlink:href="#T"/><use transform="matrix(0.010850694444444444,0,0,0.010850694444444444,76.46484374999999,0)" xlink:href="#U"/></g></defs></g></svg>